<svg width="22" height="16" viewBox="0 0 22 16" fill="none" xmlns="http://www.w3.org/2000/svg">
<path d="M5.488 15.712C4.72 15.712 4.02667 15.6213 3.408 15.44C2.78933 15.2693 2.256 15.008 1.808 14.656C1.36 14.304 1.01333 13.8667 0.768 13.344C0.533333 12.832 0.416 12.2347 0.416 11.552C0.416 11.3067 0.437333 11.0187 0.48 10.688C0.522667 10.3573 0.602667 9.984 0.72 9.568C0.837333 9.14133 1.01333 8.66667 1.248 8.144L3.216 8.832C3.09867 9.16267 2.99733 9.46667 2.912 9.744C2.82667 10.0107 2.76267 10.2613 2.72 10.496C2.67733 10.72 2.656 10.944 2.656 11.168C2.656 11.584 2.752 11.968 2.944 12.32C3.136 12.672 3.44533 12.9493 3.872 13.152C4.29867 13.3653 4.85867 13.472 5.552 13.472C6.192 13.472 6.72533 13.3973 7.152 13.248C7.57867 13.1093 7.91467 12.912 8.16 12.656C8.40533 12.4107 8.58133 12.1227 8.688 11.792C8.79467 11.4613 8.848 11.104 8.848 10.72C8.848 10.4213 8.81067 10.0853 8.736 9.712C8.672 9.33867 8.576 8.93333 8.448 8.496C8.32 8.048 8.176 7.57867 8.016 7.088L10.256 6.512C10.3627 6.91733 10.448 7.264 10.512 7.552C10.5867 7.84 10.6507 8.08 10.704 8.272C10.7573 8.45333 10.8 8.60267 10.832 8.72C10.9387 9.04 11.0667 9.28533 11.216 9.456C11.376 9.616 11.552 9.72267 11.744 9.776C11.9467 9.82933 12.1707 9.856 12.416 9.856C12.6187 9.856 12.8053 9.824 12.976 9.76C13.1467 9.696 13.3013 9.56267 13.44 9.36C13.5893 9.14667 13.7227 8.82133 13.84 8.384C13.9573 7.94667 14.064 7.344 14.16 6.576L16.272 6.912C16.2293 7.15733 16.1867 7.41867 16.144 7.696C16.1013 7.97333 16.064 8.23467 16.032 8.48C16 8.71467 15.984 8.90667 15.984 9.056C15.984 9.19467 16.0213 9.32267 16.096 9.44C16.1813 9.55733 16.3307 9.65333 16.544 9.728C16.7573 9.80267 17.0613 9.84 17.456 9.84C17.744 9.84 17.9947 9.81333 18.208 9.76C18.4213 9.696 18.5867 9.584 18.704 9.424C18.8213 9.25333 18.88 9.01333 18.88 8.704C18.88 8.43733 18.8373 8.11733 18.752 7.744C18.6667 7.36 18.5547 6.944 18.416 6.496C18.288 6.048 18.1387 5.58933 17.968 5.12L20.224 4.448C20.3947 4.90667 20.544 5.39733 20.672 5.92C20.8107 6.432 20.9173 6.93333 20.992 7.424C21.0773 7.904 21.12 8.32533 21.12 8.688C21.12 9.25333 21.0347 9.74933 20.864 10.176C20.704 10.6027 20.464 10.96 20.144 11.248C19.8347 11.5253 19.456 11.7333 19.008 11.872C18.56 12.0107 18.0587 12.08 17.504 12.08C17.0987 12.08 16.7253 12.0373 16.384 11.952C16.0533 11.856 15.7653 11.7227 15.52 11.552C15.2853 11.3813 15.104 11.1733 14.976 10.928C14.848 10.672 14.7893 10.384 14.8 10.064H15.344C15.184 10.6507 14.9653 11.088 14.688 11.376C14.4107 11.664 14.1013 11.856 13.76 11.952C13.4187 12.0373 13.072 12.08 12.72 12.08C12.4427 12.08 12.176 12.0533 11.92 12C11.664 11.9467 11.4293 11.8613 11.216 11.744C11.0133 11.616 10.8373 11.4507 10.688 11.248C10.5387 11.0347 10.4373 10.7787 10.384 10.48L10.976 11.12C10.9547 11.8453 10.8107 12.4907 10.544 13.056C10.2773 13.6213 9.904 14.1013 9.424 14.496C8.95467 14.8907 8.384 15.1893 7.712 15.392C7.05067 15.6053 6.30933 15.712 5.488 15.712ZM14.224 2.176C13.9573 2.176 13.7227 2.07467 13.52 1.872C13.328 1.66933 13.232 1.42933 13.232 1.152C13.232 0.874666 13.328 0.639999 13.52 0.447999C13.7227 0.256 13.9573 0.16 14.224 0.16C14.5013 0.16 14.736 0.256 14.928 0.447999C15.12 0.639999 15.216 0.874666 15.216 1.152C15.216 1.42933 15.12 1.66933 14.928 1.872C14.736 2.07467 14.5013 2.176 14.224 2.176ZM12.944 4.288C12.6773 4.288 12.4427 4.18667 12.24 3.984C12.048 3.78133 11.952 3.54133 11.952 3.264C11.952 2.98667 12.048 2.752 12.24 2.56C12.4427 2.368 12.6773 2.272 12.944 2.272C13.2213 2.272 13.456 2.368 13.648 2.56C13.84 2.752 13.936 2.98667 13.936 3.264C13.936 3.54133 13.84 3.78133 13.648 3.984C13.456 4.18667 13.2213 4.288 12.944 4.288ZM15.424 4.288C15.1573 4.288 14.9227 4.18667 14.72 3.984C14.528 3.78133 14.432 3.54133 14.432 3.264C14.432 2.98667 14.528 2.752 14.72 2.56C14.9227 2.368 15.1573 2.272 15.424 2.272C15.7013 2.272 15.936 2.368 16.128 2.56C16.32 2.752 16.416 2.98667 16.416 3.264C16.416 3.54133 16.32 3.78133 16.128 3.984C15.936 4.18667 15.7013 4.288 15.424 4.288Z" fill="#863ED5"/>
</svg>

