<svg width="214" height="49" viewBox="0 0 214 49" fill="none" xmlns="http://www.w3.org/2000/svg">
<g clip-path="url(#clip0_1102_1258)">
<path d="M4.80224 14.7033C4.40118 17.2943 2.79956 19.138 0 20.236V20.0865C1.5007 19.1893 2.40112 18.2405 2.70126 17.2453C1.29886 17.344 0.45021 17.5937 0.15007 17.993C0.349288 16.7967 0.698576 15.9485 1.20056 15.4509C1.39978 15.2502 2.60034 15.0023 4.80224 14.7033ZM77.4362 22.6285C77.4362 24.1238 77.136 25.418 76.5358 26.5156C75.9355 27.8106 75.0351 28.4599 73.8345 28.4599C73.0328 28.4599 72.4325 28.408 72.0337 28.3108C72.0337 28.8083 72.0337 29.3059 72.0337 29.8061C72.0337 31.799 71.7827 33.0442 71.2833 33.5444C67.2806 38.1283 63.5288 40.4229 60.028 40.4229C58.5273 40.4229 57.3759 39.7242 56.5764 38.3291C55.8752 37.2308 55.5259 35.9851 55.5259 34.5908C55.5259 32.2962 56.0744 29.4554 57.1767 26.0674C55.9762 26.9642 53.9735 28.808 51.1739 31.6001C48.0716 34.5908 45.8205 36.6846 44.4208 37.8805C41.8178 39.8737 39.7168 40.8711 38.1178 40.8711C36.9172 40.8711 35.8668 40.2965 34.9663 39.1515C34.0659 38.0046 33.6157 36.6838 33.6157 35.1885C33.6157 33.3937 34.216 31.0995 35.4165 28.3104C35.2147 28.4083 34.9663 28.4595 34.6662 28.4595C33.965 28.4595 33.3647 28.4076 32.8654 28.3104C32.8654 28.808 32.8654 29.3055 32.8654 29.8057C32.8654 31.7986 32.6635 32.9945 32.2651 33.3945C27.5611 37.9788 23.7602 40.273 20.8597 40.273C19.359 40.273 18.2076 39.6745 17.4081 38.4779C16.6064 37.2823 16.2076 35.836 16.2076 34.1414C16.2076 33.5433 16.4559 32.221 16.9579 30.1788C17.4573 28.1339 17.7083 26.3657 17.7083 24.8704C17.7083 23.6741 17.5582 22.5265 17.2581 21.4311C16.0575 21.1321 14.8569 20.2838 13.6564 18.8891C12.4558 17.4921 11.6541 16.7952 11.2553 16.7952C10.7536 16.7952 9.95378 17.6416 8.85414 19.3377C8.05201 20.6319 7.35344 21.9287 6.75316 23.2251C9.05336 24.4214 10.2048 27.0124 10.2048 31.0005H9.45442C8.35253 30.5022 7.30166 29.9556 6.30294 29.3575C5.30198 28.6592 4.80224 27.6121 4.80224 26.2177C2.49979 27.3137 1.35063 28.8091 1.35063 30.7037C1.35063 30.9022 2.32609 33.1941 4.277 37.5818C6.22791 41.9668 7.20337 45.4558 7.20337 48.0491H6.90323C6.70138 46.4528 5.55259 43.5115 3.45161 39.2259C1.54985 35.2382 0.60028 32.3481 0.60028 30.5537C0.60028 27.9601 2.15013 25.5676 5.25245 23.3762C5.65127 22.0794 6.65223 20.3343 8.25386 18.1425C10.0547 15.5489 11.504 14.2547 12.6059 14.2547C13.0047 14.2547 13.9565 15.1519 15.4572 16.9463C15.2554 16.4461 15.1571 15.9485 15.1571 15.4509C15.1571 14.1541 15.6073 13.0584 16.5077 12.1612C17.4081 11.264 18.5078 10.8151 19.8093 10.8151C20.8083 10.8151 22.7593 11.2876 25.662 12.236C28.5625 13.1818 31.1137 13.6565 33.3156 13.6565L31.5147 16.6472C30.1127 16.8457 27.8616 17.7429 24.7616 19.3388C22.0603 20.7332 19.8093 21.4323 18.0084 21.4323C17.9075 21.4323 17.7083 21.4323 17.4081 21.4323C17.9079 22.827 18.1585 24.3223 18.1585 25.9182C18.1585 27.2128 17.9825 28.6592 17.6332 30.2547C17.2813 31.8491 17.108 32.7455 17.108 32.9466C17.108 36.1358 18.4069 37.7313 21.0098 37.7313C22.9093 37.7313 25.1109 36.7339 27.6129 34.7407C29.2119 33.4438 30.7126 32.0988 32.115 30.7037C32.115 30.005 31.7139 28.9089 30.9144 27.4136C30.5134 26.5164 30.0632 25.6192 29.5638 24.7223L30.6143 22.1803C31.5147 23.5751 32.1642 24.5212 32.5652 25.021C33.2642 25.7175 34.0145 26.0685 34.8163 26.0685C35.8154 26.0685 36.6171 25.6693 37.2174 24.8722C37.2174 23.3769 37.1165 21.9306 36.9173 20.5354L34.3661 4.68533C34.2651 3.68982 34.0659 2.94216 33.7658 2.44234L34.5161 0.348512L37.2174 5.28272V6.17991L35.8668 4.83412C35.7658 5.03524 35.7658 5.23375 35.8668 5.43262L38.1178 20.5351C38.2161 20.9324 38.2679 21.6315 38.2679 22.6289C38.2679 25.6195 37.4658 27.4629 35.8668 28.1616C34.8654 30.3534 34.3661 32.2973 34.3661 33.9934C34.3661 34.8906 34.7153 35.7365 35.4165 36.5362C36.216 37.433 37.166 37.882 38.2679 37.882C40.0687 37.882 42.3689 36.5362 45.1711 33.8446C47.6709 31.55 50.1729 29.2094 52.6746 26.8165C54.5741 25.2199 56.4264 23.8749 58.2272 22.7788C57.7252 22.5784 56.9749 22.0311 55.9762 21.1343C54.5737 20.036 53.8752 18.7904 53.8752 17.396C53.8752 15.1018 55.1249 13.9567 57.6269 13.9567C62.4292 13.9567 67.6302 14.8023 73.2342 16.4988L71.2833 19.4894C69.4825 20.0879 66.2301 21.3822 61.5287 23.3773C62.0281 24.1743 62.5792 26.0689 63.1795 29.0595C60.4783 29.0595 59.1276 28.2599 59.1276 26.667C59.1276 26.4663 59.1768 26.1179 59.2777 25.6203C59.3764 25.1205 59.4278 24.7717 59.4278 24.5736C59.0267 24.8726 58.4268 25.2693 57.6269 25.7691C56.6256 28.9582 56.1262 31.3515 56.1262 32.947C56.1262 36.1362 57.4769 37.7317 60.1781 37.7317C63.0786 37.7317 66.7812 35.3885 71.2833 30.704C71.1824 30.0053 70.7817 28.9093 70.0827 27.4139C69.5811 26.6151 69.1309 25.7691 68.7321 24.8719L69.6325 22.1803C70.533 23.6756 71.2315 24.6218 71.7335 25.021C72.3338 25.7175 73.0841 26.0685 73.9846 26.0685C74.9833 26.0685 75.7854 25.6693 76.3857 24.8722C76.2848 23.3769 76.1347 21.9306 75.9355 20.5354L73.5344 4.83449C73.3325 3.73879 73.1333 2.94178 72.9341 2.44234L73.6844 0.348512L76.2356 5.28309V6.18029L75.0351 4.83412C74.9341 5.13356 74.9341 5.38365 75.0351 5.58178L77.2861 20.5351C77.3848 20.9321 77.4362 21.6308 77.4362 22.6285ZM10.3548 9.3201C10.3548 11.0139 9.80371 11.8625 8.70407 11.8625C7.70272 11.8625 7.20337 11.313 7.20337 10.2177C7.20337 9.51898 7.35344 8.67337 7.65358 7.67561C8.25386 6.47935 8.554 5.7829 8.554 5.58178C8.75321 6.38141 8.80274 6.92795 8.70407 7.22664C9.80371 7.82477 10.3548 8.52346 10.3548 9.3201ZM9.90463 9.91823C9.50357 9.41842 8.90366 9.06963 8.10379 8.8715C7.70272 9.26888 7.50351 9.51823 7.50351 9.61917C7.50351 10.2173 7.85279 10.5164 8.554 10.5164C9.05335 10.5164 9.50357 10.3152 9.90463 9.91823ZM13.9565 34.5911L12.906 36.2352C12.3057 36.4337 11.6541 36.584 10.9551 36.6842C9.85285 37.0816 9.30435 37.5302 9.30435 38.0304C9.80408 40.0233 10.0547 41.4184 10.0547 42.2169C10.0547 44.0117 10.0033 45.0584 9.90463 45.3567C9.90463 44.2584 9.70278 42.8147 9.30435 41.0203C8.90366 39.2251 8.70407 38.0786 8.70407 37.581C8.70407 36.6842 9.02747 36.0857 9.67952 35.7866C10.329 35.4868 10.9551 35.2371 11.5554 35.039C11.1547 34.7392 10.805 34.5904 10.5049 34.5904L9.60449 35.338V34.5904C9.90463 34.1908 10.153 33.8169 10.3548 33.4689C10.5541 33.1182 10.805 32.9459 11.1052 32.9459C11.7055 32.9463 12.655 33.4928 13.9565 34.5911ZM15.1571 27.1145L13.9565 29.5063L11.4053 28.3108L12.3057 26.2173L10.0547 25.0207L11.1052 22.6289L13.8065 23.8251L12.756 25.9182L15.1571 27.1145ZM27.913 15.6005C27.3128 15.4995 25.9107 15.1519 23.7111 14.5534C21.9102 13.9556 20.5078 13.6565 19.5091 13.6565C17.2063 13.6565 16.0575 14.5025 16.0575 16.1986C16.0575 16.8947 16.3062 17.5934 16.8079 18.2921C17.2067 18.6894 17.7083 18.8906 18.3086 18.8906C19.7083 18.8906 21.31 18.4909 23.1108 17.6943C26.0113 16.3971 27.6129 15.6984 27.913 15.6005ZM29.2637 26.965C27.763 30.7523 25.8612 32.6472 23.561 32.6472C21.8588 32.6472 21.0098 31.8483 21.0098 30.2547C21.0098 28.9579 22.1095 27.6128 24.3114 26.2177C23.9107 25.9182 23.5096 25.7687 23.1108 25.7687C22.6092 25.7687 22.1095 26.0166 21.6101 26.5164V25.9182C22.1095 24.8199 22.8107 24.2734 23.7111 24.2734C25.2118 24.2734 26.4123 24.4719 27.3128 24.8722L25.5119 26.516C24.8107 26.7145 24.0345 27.1635 23.1858 27.8625C22.3346 28.5586 21.9102 29.1567 21.9102 29.6569C21.9102 30.5541 22.7097 31.0027 24.3114 31.0027C25.4114 31.0027 26.511 30.4046 27.6129 29.2087C28.1123 28.4087 28.6634 27.661 29.2637 26.965ZM31.9649 6.62851C31.9649 7.8244 31.5639 8.4229 30.7644 8.4229C30.3633 8.4229 29.9622 8.2244 29.5638 7.8244C29.2637 8.62403 28.8135 9.02066 28.2132 9.02066C27.512 9.02066 27.1627 8.57206 27.1627 7.67487C27.1627 7.07636 27.1627 6.4786 27.1627 5.88047C26.9608 6.0816 26.7125 6.38029 26.4123 6.7773V6.17917C26.6116 5.6816 27.1113 5.03412 27.913 4.23524C27.6129 6.3287 27.8121 7.37543 28.5133 7.37543C29.0127 7.37543 29.2637 7.02702 29.2637 6.32832C29.2637 6.02926 29.1628 5.4315 28.9635 4.53393L29.4137 3.63786C29.7139 4.13767 29.9135 4.88533 30.014 5.88085C30.014 6.57954 30.2628 6.92758 30.7644 6.92758C31.0645 6.92758 31.2146 6.67973 31.2146 6.17991L30.7644 4.23599L31.3647 3.18926C31.7635 4.48608 31.9649 5.63337 31.9649 6.62851ZM40.5189 32.3481C40.418 33.7425 39.9187 34.442 39.0182 34.442C38.1178 34.442 37.6676 33.993 37.6676 33.0958C37.6676 31.799 38.3666 30.3037 39.7686 28.6098C39.0674 30.2035 38.7181 31.3504 38.7181 32.0491C38.7181 32.7448 38.9665 33.0958 39.4684 33.0958C39.9678 33.0958 40.2679 32.8457 40.3689 32.3481H40.5189ZM43.5203 23.6752C43.5203 25.7683 43.2693 27.3623 42.77 28.4603H42.4698C42.5681 26.2663 42.4698 23.9743 42.1697 21.5822L39.4684 4.68496C39.3675 3.68945 39.1683 2.94178 38.8682 2.44197L39.6185 0.348138L42.1697 5.28272V6.17991L40.9691 4.83375C40.8682 5.03487 40.8682 5.23337 40.9691 5.43225L43.3703 21.4323C43.4686 21.9298 43.5203 22.6775 43.5203 23.6752ZM50.2735 4.98365C50.2735 5.3829 50.1234 5.83225 49.8233 6.32945C49.5231 6.03038 49.2721 5.88122 49.0729 5.88122C48.5713 5.88122 48.1725 6.57991 47.8724 7.97468C47.6705 8.87188 47.5205 9.86739 47.4222 10.9653C47.122 10.1661 46.6204 9.11935 45.9215 7.82515C45.8205 8.32571 45.5204 8.57281 45.021 8.57281C44.2189 8.57281 43.8205 8.12459 43.8205 7.22702C43.8205 6.13094 44.1701 5.58216 44.871 5.58216C45.7714 5.58216 46.5709 6.62926 47.2721 8.72234C47.8724 5.13356 48.6227 3.33917 49.5231 3.33917C50.0225 3.33879 50.2735 3.88795 50.2735 4.98365ZM50.4236 13.3575C50.0225 16.0487 48.4726 17.8924 45.7714 18.8902L45.6213 18.7407C47.122 17.8438 48.0224 16.8947 48.3226 15.8995C46.9205 15.9979 46.0715 16.2476 45.7714 16.6472C45.9706 15.4509 46.3199 14.6027 46.8219 14.1051C47.0211 13.9044 48.2217 13.6565 50.4236 13.3575ZM50.2735 22.6285L49.0729 25.0203L46.5217 23.8248L47.7223 21.4323L50.2735 22.6285ZM52.9748 38.6285C52.9748 40.0233 52.4728 40.7223 51.474 40.7223C50.5736 40.7223 50.1234 40.2741 50.1234 39.3762C50.1234 38.0794 50.822 36.584 52.2244 34.8902H52.3745C51.5723 36.4838 51.1739 37.6311 51.1739 38.3294C51.1739 39.0255 51.4226 39.3762 51.9243 39.3762C52.424 39.3762 52.7238 39.1265 52.8247 38.6285H52.9748ZM55.676 6.62851C55.676 7.8244 55.4254 9.17057 54.9257 10.6659C55.0243 9.86702 55.0757 8.97206 55.0757 7.97431C55.0757 6.17991 54.5246 4.78515 53.425 3.78739L53.575 1.993C54.274 2.39225 54.7992 3.09132 55.1508 4.08646C55.5001 5.08421 55.676 5.93206 55.676 6.62851ZM68.1318 18.4416C65.3297 17.2453 62.0773 16.6472 58.3773 16.6472C56.5764 16.6472 55.3759 16.8457 54.7756 17.2453C54.7756 17.4438 55.425 18.0165 56.7265 18.9653C58.0254 19.9111 59.1276 20.8345 60.028 21.7313C62.129 20.7336 64.8303 19.6379 68.1318 18.4416ZM71.4334 1.5444C71.4334 2.1429 71.2574 2.8416 70.9081 3.63823C70.5562 4.43711 70.1319 5.03487 69.6325 5.43262C70.2328 4.23636 70.533 3.39075 70.533 2.89057C65.4306 4.48646 60.7784 7.17804 56.5764 10.9653C56.6751 10.4651 56.7757 9.96758 56.8766 9.47001C58.5765 7.77618 60.8534 6.18029 63.7048 4.68496C66.5561 3.18926 69.1309 2.14253 71.4334 1.5444ZM67.6816 27.8622C67.8808 28.6592 67.6816 29.1074 67.0813 29.2083C66.7812 29.3066 66.331 29.1074 65.7307 28.6098C65.3297 29.3059 64.6802 30.2539 63.7798 31.4513C62.6775 32.7455 61.2286 33.5451 59.4278 33.8435L58.0771 34.1425C59.4769 33.4438 61.0271 32.4465 62.7293 31.1519C64.1291 30.0536 65.0787 28.9579 65.5806 27.8622C65.9795 27.0629 66.331 26.6147 66.6311 26.5156C67.1305 26.4162 67.4798 26.8644 67.6816 27.8622ZM68.8822 10.0678C68.8822 11.264 68.4811 11.8625 67.6816 11.8625C67.2806 11.8625 66.8799 11.6124 66.4811 11.1149C66.1809 11.9115 65.7307 12.3108 65.1304 12.3108C64.5302 12.3108 64.1782 11.9119 64.0799 11.1149C64.0799 10.4162 64.0799 9.7687 64.0799 9.17094C63.8785 9.47001 63.6793 9.76907 63.4797 10.0678V9.61917C63.578 9.11935 64.0282 8.47412 64.8303 7.67524C64.5302 9.66851 64.7294 10.6659 65.4306 10.6659C65.9303 10.6659 66.1809 10.3668 66.1809 9.7687C66.1809 9.46963 66.08 8.8229 65.8808 7.82477L66.4811 7.07711C66.6803 7.47674 66.8304 8.17543 66.9313 9.17094C66.9313 9.86739 67.18 10.2177 67.6816 10.2177C67.9818 10.2177 68.1318 10.0165 68.1318 9.61954C68.1318 9.5186 67.9818 8.87188 67.6816 7.67561L68.2819 6.47935C68.6807 7.7758 68.8822 8.97206 68.8822 10.0678ZM67.3815 28.3108C66.9804 27.7122 66.5302 27.5631 66.0309 27.8622C66.6311 28.2592 67.0813 28.4087 67.3815 28.3108ZM81.0379 34.4416C81.0379 35.4367 80.7377 35.9369 80.1374 35.9369C79.7364 35.9369 79.2862 35.7878 78.7868 35.488C77.0843 38.5777 73.9328 40.073 69.3324 39.9739H69.1823V39.8248C73.6844 38.7265 76.735 37.1822 78.3366 35.1896C77.835 34.9885 77.5863 34.6894 77.5863 34.2928C77.5863 33.993 77.7363 33.6431 78.0365 33.2453C78.3366 32.8465 78.585 32.6472 78.7868 32.6472L78.6367 32.0491L78.7868 31.8995C78.986 31.8995 79.3353 32.098 79.8373 32.4977V32.6472C80.6368 33.5444 81.0379 34.1425 81.0379 34.4416ZM82.6886 23.6752C82.6886 25.7683 82.438 27.3623 81.9383 28.4603H81.6381C81.7364 26.2663 81.5864 23.9743 81.1879 21.5822L78.6367 4.68496C78.4349 3.68945 78.2357 2.94178 78.0365 2.44197L78.7868 0.348138L81.338 5.28272V6.17991L80.1374 4.83375C80.0365 5.03487 79.9874 5.23337 79.9874 5.43225L82.5386 21.4323C82.6372 21.9298 82.6886 22.6775 82.6886 23.6752ZM79.3871 33.6939C79.3871 33.4928 79.2862 33.3945 79.087 33.3945C78.6863 33.3945 78.3857 33.544 78.1865 33.8431C78.3857 34.1422 78.6863 34.3407 79.087 34.4416C79.087 34.3407 79.1361 34.2169 79.237 34.0678C79.3353 33.9182 79.3871 33.7919 79.3871 33.6939ZM214 28.1612C214 29.556 213.674 30.7037 213.024 31.6005C212.372 32.4969 211.648 32.9463 210.848 32.9463C209.347 32.9463 208.297 31.9975 207.697 30.1048C207.296 31.9975 206.445 32.9463 205.145 32.9463C203.945 32.9463 203.143 32.1466 202.745 30.5541C201.943 32.4468 200.543 33.3952 198.543 33.3952C197.842 33.3952 197.268 33.1197 196.817 32.5732C196.367 32.024 196.141 31.3997 196.141 30.704C196.141 30.4046 196.141 30.1549 196.141 29.9564C182.035 34.3414 167.628 36.5362 152.921 36.5362C145.816 36.5362 138.864 35.9377 132.061 34.741C125.557 33.7437 120.705 32.3979 117.505 30.704C117.505 32.0984 117.452 33.4936 117.354 34.8906H117.055C115.854 34.0917 115.104 33.1455 114.804 32.0494C114.703 31.2498 114.628 30.5022 114.579 29.8065C114.526 29.1078 113.902 28.759 112.703 28.759C111.6 28.759 109.725 30.3534 107.075 33.5448C104.423 36.7336 102.397 38.3298 100.997 38.3298C100.195 38.3298 99.4965 37.956 98.8962 37.2083C98.2959 36.4607 97.9958 35.4375 97.9958 34.1429C97.9958 33.4442 98.1459 32.5964 98.446 31.6008C97.9444 31.7994 97.445 31.8999 96.9453 31.8999C94.943 31.8999 93.6438 30.5541 93.0435 27.8625C92.8416 31.1523 91.3409 32.7971 88.5414 32.7971C87.3408 32.7971 86.4404 32.1474 85.8401 30.8532C85.4394 29.8554 85.289 28.7085 85.3899 27.4139C85.3899 27.2132 85.4882 26.5167 85.69 25.3205C85.7887 24.3227 85.8401 23.4255 85.8401 22.6289C85.1389 23.6244 84.6395 24.9212 84.3394 26.516C84.1379 27.6124 83.9387 28.7078 83.7391 29.8065C83.3381 31.6008 82.6886 32.4973 81.7882 32.4973C81.087 32.4973 80.4867 31.9231 79.9874 30.7777C79.4854 29.6308 79.237 28.4083 79.237 27.1141C79.237 25.7171 79.3353 24.1728 79.5372 22.4786L79.8373 22.6281C79.7364 23.4248 79.6872 24.2218 79.6872 25.0199C79.6872 28.4079 80.3862 30.1048 81.7882 30.1048C82.2876 30.1048 82.7378 29.3571 83.1388 27.8618C83.8374 25.3687 84.2385 23.9223 84.3394 23.525C85.0384 21.8293 85.9388 20.6838 87.0407 20.0861V22.0296C86.6396 24.621 86.4404 26.2169 86.4404 26.8151C86.4404 29.0061 87.2399 30.1048 88.8415 30.1048C89.8406 30.1048 90.7174 29.7051 91.4677 28.9085C92.2181 28.1096 92.5933 27.1635 92.5933 26.0674L91.5428 20.236L92.2931 18.1425C92.7925 19.138 93.0926 19.9369 93.1935 20.5347C93.4937 22.2285 93.7421 23.9739 93.9439 25.7683C94.5442 28.2592 95.6438 29.5066 97.2454 29.5066C98.2442 29.5066 98.9454 29.1078 99.3464 28.3111C98.8448 27.2128 98.3454 26.1171 97.8457 25.0207C97.1445 23.2266 96.7435 21.8296 96.6452 20.8345L96.1949 19.7874L96.7952 17.6939L98.8962 20.9837V21.7313C98.5961 21.5302 98.2959 21.2827 97.9958 20.9837C97.8949 21.1822 97.8949 21.2827 97.9958 21.2827C99.3956 24.4719 100.097 26.6659 100.097 27.8625C100.097 29.6569 99.6961 30.8532 98.8962 31.4517C98.5961 32.4468 98.446 33.1945 98.446 33.6947C98.446 35.0891 99.145 35.7885 100.547 35.7885C101.846 35.7885 103.797 34.1668 106.4 30.9287C109 27.688 111.052 26.0689 112.553 26.0689C113.052 26.0689 113.753 26.368 114.654 26.9657L115.404 25.1709C116.804 27.1638 120.957 29.0068 127.86 30.7033C135.762 32.4973 144.818 33.3945 155.022 33.3945C161.925 33.3945 169.527 32.7964 177.833 31.6001C185.036 30.5018 191.539 29.156 197.342 27.5627C197.141 27.8618 197.042 28.2091 197.042 28.6094C197.042 29.208 197.241 29.7545 197.642 30.2536C198.041 30.7515 198.491 31.0012 198.994 31.0012C199.992 31.0012 201.043 30.5014 202.144 29.5059L204.095 27.5631L204.245 27.7126C204.245 27.9111 204.245 28.11 204.245 28.3111C204.245 29.7051 204.745 30.4046 205.746 30.4046C206.245 30.4046 206.797 29.9564 207.396 29.0588C208.095 27.8625 208.597 27.1642 208.897 26.965H209.047C209.047 27.1635 209.047 27.3623 209.047 27.5635C209.047 28.3601 209.321 29.0823 209.872 29.7317C210.421 30.3784 210.946 30.7037 211.448 30.7037C212.447 30.7037 212.949 30.3044 212.949 29.507C212.949 28.6106 212.198 26.8162 210.698 24.1246C209.096 21.2323 208.245 19.4891 208.146 18.8909C208.046 18.6898 207.896 18.4162 207.696 18.0685C207.495 17.7179 207.396 17.4936 207.396 17.3956L207.846 15.1526L210.848 18.2924V18.8902L209.497 18.2917V18.5911C210.297 19.787 211.096 20.9833 211.898 22.1799C213.299 24.6704 214 26.6659 214 28.1612ZM80.5877 34.8902C80.3862 34.6894 80.086 34.341 79.6872 33.8435L79.3871 34.5911C79.6872 34.7896 79.9874 34.8902 80.2875 34.8902C80.3862 34.8902 80.4867 34.8902 80.5877 34.8902ZM98.446 0.0490723C98.446 0.548885 98.2441 1.19636 97.8457 1.993C97.445 2.79188 97.044 3.43935 96.6452 3.93692C97.2454 2.74066 97.5456 1.84309 97.5456 1.24533C91.3409 3.24047 86.0885 6.17991 81.7882 10.0678C81.7882 9.56795 81.8869 9.02104 82.0884 8.42328C83.7883 6.83001 86.389 5.13356 89.892 3.33879C93.1936 1.64496 96.0449 0.548885 98.446 0.0490723ZM92.1431 35.0397C92.1431 35.5373 91.9412 36.0349 91.5428 36.5351C91.3409 36.2352 91.0926 36.0865 90.7924 36.0865C90.2908 36.0865 89.892 36.7332 89.5919 38.0304C89.4909 39.0255 89.3412 40.0233 89.1417 41.021C88.9398 40.3223 88.4405 39.2756 87.641 37.8808C87.54 38.479 87.289 38.778 86.8906 38.778C85.9902 38.778 85.54 38.2779 85.54 37.2827C85.54 36.285 85.9388 35.7874 86.7405 35.7874C87.54 35.7874 88.3395 36.8341 89.1417 38.9272C89.641 35.338 90.3914 33.5444 91.3927 33.5444C91.8921 33.5444 92.1431 34.042 92.1431 35.0397ZM92.4432 12.9089C92.4432 14.1051 91.993 14.7033 91.0926 14.7033C90.7924 14.7033 90.3914 14.4532 89.892 13.9556C89.6902 14.7523 89.2399 15.1519 88.5414 15.1519C87.9411 15.1519 87.5892 14.7523 87.4909 13.9556C87.4909 13.2569 87.4909 12.6098 87.4909 12.0117C87.289 12.3108 87.0898 12.6102 86.8906 12.9089V12.3108C87.0898 11.9119 87.54 11.3134 88.2412 10.5164C88.0394 12.5093 88.2412 13.507 88.8415 13.507C89.3412 13.507 89.5919 13.1564 89.5919 12.4603C89.5919 12.2592 89.4909 11.661 89.2917 10.6659L89.892 9.91823C90.1921 10.3156 90.3422 11.0139 90.3422 12.0117C90.4409 12.7078 90.741 13.0584 91.2426 13.0584C91.5428 13.0584 91.6928 12.858 91.6928 12.4603C91.6928 12.3597 91.5428 11.7126 91.2426 10.5164L91.6928 9.3201C92.1922 10.6147 92.4432 11.8106 92.4432 12.9089ZM96.1949 11.264C96.1949 12.4603 95.9443 13.8061 95.4446 15.3014C95.5433 14.5025 95.5947 13.6057 95.5947 12.6102C95.5947 10.8154 95.0435 9.41842 93.9439 8.42328L94.094 6.47935C94.6942 6.97917 95.194 7.72683 95.5947 8.72234C95.9931 9.71711 96.1949 10.5653 96.1949 11.264ZM104.299 23.6752C104.299 25.7683 104.097 27.3623 103.698 28.4603H103.398C103.497 26.2663 103.347 23.9743 102.948 21.5822L100.397 4.68496C100.195 3.68945 99.9958 2.94178 99.7966 2.44197L100.547 0.348138L103.098 5.28272V6.17991L101.898 4.83375C101.797 5.03487 101.748 5.23337 101.748 5.43225L104.299 21.4323C104.299 21.9298 104.299 22.6775 104.299 23.6752ZM113.903 33.9926C114.002 34.8898 113.802 35.3878 113.303 35.488C113.003 35.488 112.501 35.2876 111.802 34.8898C111.402 35.5863 110.801 36.4835 110.001 37.5814C108.801 38.8756 107.3 39.7235 105.499 40.1235L104.299 40.273C105.598 39.6745 107.099 38.7257 108.801 37.4315C110.302 36.2349 111.3 35.0876 111.802 33.9919C112.201 33.193 112.501 32.7444 112.703 32.6461C113.202 32.6472 113.603 33.0958 113.903 33.9926ZM113.003 7.22664C113.003 7.6259 112.853 8.07524 112.553 8.57244C112.252 8.27337 112.001 8.12421 111.802 8.12421C111.3 8.12421 110.902 8.77318 110.602 10.0678C110.4 11.1642 110.25 12.1616 110.152 13.0584C109.95 12.3601 109.451 11.3627 108.651 10.0678C108.55 10.5657 108.25 10.8154 107.751 10.8154C106.949 10.8154 106.551 10.3672 106.551 9.46963C106.551 8.37356 106.9 7.82477 107.601 7.82477C108.501 7.82477 109.301 8.87188 110.002 10.965C110.602 7.37617 111.353 5.58178 112.253 5.58178C112.752 5.58178 113.003 6.13094 113.003 7.22664ZM113.453 15.4509L112.402 17.0958C111.801 17.2939 111.15 17.4932 110.451 17.6939C109.349 17.993 108.801 18.4416 108.801 19.0397C109.3 20.9324 109.551 22.2782 109.551 23.0775C109.551 24.8719 109.499 25.9186 109.401 26.2173C109.401 25.119 109.2 23.6988 108.801 21.956C108.401 20.2106 108.2 19.0891 108.2 18.5915C108.2 17.5937 108.524 16.9466 109.176 16.6476C109.825 16.3485 110.451 16.0984 111.052 15.8999C110.55 15.6988 110.152 15.6008 109.851 15.6008C109.95 15.6008 109.65 15.799 108.952 16.199L109.101 15.4513C109.3 15.1523 109.526 14.7784 109.777 14.3298C110.025 13.8812 110.302 13.6569 110.602 13.6569C111.202 13.6565 112.152 14.2547 113.453 15.4509ZM113.603 34.4416C113.203 33.8431 112.752 33.6939 112.252 33.9926C112.752 34.39 113.202 34.5395 113.603 34.4416ZM116.755 30.4042C116.454 30.2035 116.004 29.7549 115.403 29.0584C115.403 29.556 115.528 30.128 115.778 30.778C116.027 31.4251 116.304 31.75 116.604 31.75C116.703 31.7496 116.755 31.3014 116.755 30.4042ZM193.891 36.6846C193.389 36.6846 193.039 36.3851 192.84 35.7878C192.139 36.6846 191.489 37.1336 190.889 37.1336C190.688 37.1336 190.365 36.984 189.914 36.6853C189.464 36.3855 189.187 36.236 189.088 36.236C188.586 36.236 187.637 36.5358 186.237 37.1332C184.435 37.9298 182.984 38.528 181.884 38.928C179.683 39.6237 177.281 39.9743 174.681 39.9743L174.532 39.6752C176.731 39.6752 178.932 39.2263 181.135 38.3291C182.335 37.9294 184.035 37.1328 186.238 35.9369C187.837 35.0401 188.988 34.5908 189.689 34.5908C189.888 34.5908 190.188 34.7893 190.589 35.1893C190.988 35.5866 191.339 35.7878 191.64 35.7878C192.038 35.7878 192.489 35.2876 192.991 34.2924L193.44 33.9926C193.339 34.79 193.59 35.1893 194.191 35.1893C194.492 35.1893 194.792 34.6891 195.091 33.6939L195.391 33.5448C195.391 35.6379 194.89 36.6846 193.891 36.6846ZM205.746 9.46963C205.746 9.86702 205.544 10.3668 205.145 10.965C204.845 10.5653 204.594 10.3668 204.395 10.3668C203.893 10.3668 203.495 11.0625 203.194 12.4603C203.093 13.3575 202.944 14.3037 202.745 15.3014C202.444 14.6031 201.942 13.6057 201.244 12.3108C201.142 12.8087 200.843 13.0584 200.344 13.0584C199.541 13.0584 199.143 12.6102 199.143 11.7126C199.143 10.6143 199.493 10.0678 200.194 10.0678C201.094 10.0678 201.893 11.1149 202.595 13.208C203.195 9.61917 203.945 7.82477 204.846 7.82477C205.446 7.82477 205.746 8.37393 205.746 9.46963ZM204.546 20.9837C204.546 22.778 203.994 23.6752 202.895 23.6752C201.893 23.6752 201.394 23.1261 201.394 22.0304C201.394 21.3321 201.593 20.4838 201.995 19.4883C202.595 18.2921 202.895 17.5937 202.895 17.3949C203.094 18.1915 203.144 18.7407 203.045 19.0394C204.044 19.6379 204.546 20.285 204.546 20.9837ZM204.095 21.7313C203.695 21.2315 203.094 20.8345 202.295 20.5351C201.994 21.033 201.844 21.3321 201.844 21.4323C201.844 21.9298 202.194 22.1799 202.895 22.1799C203.394 22.1799 203.795 22.0304 204.095 21.7313ZM211.599 35.9369L210.548 38.3291L207.997 36.9825L209.048 34.5908L211.599 35.9369Z" fill="white"/>
</g>
<defs>
<clipPath id="clip0_1102_1258">
<rect width="214" height="48" fill="white" transform="translate(0 0.0490723)"/>
</clipPath>
</defs>
</svg>

