<svg width="21" height="25" viewBox="0 0 21 25" fill="none" xmlns="http://www.w3.org/2000/svg">
<path d="M6.09 21.56C5.82479 21.56 5.57043 21.4546 5.3829 21.2671C5.19536 21.0796 5.09 20.8252 5.09 20.56L4.94 5.9C4.92796 5.60234 4.97489 5.30525 5.07808 5.02579C5.18127 4.74633 5.33869 4.49004 5.54129 4.27164C5.74389 4.05324 5.98767 3.87705 6.2586 3.75321C6.52954 3.62936 6.82228 3.5603 7.12 3.55L16.71 3.5C17.0081 3.50521 17.3023 3.56909 17.5757 3.68801C17.8491 3.80692 18.0964 3.97854 18.3035 4.19305C18.5106 4.40756 18.6734 4.66077 18.7826 4.93821C18.8918 5.21565 18.9453 5.51189 18.94 5.81L19.08 20.47C19.0817 20.6452 19.0374 20.8178 18.9514 20.9705C18.8654 21.1232 18.7407 21.2506 18.59 21.34C18.438 21.4278 18.2655 21.474 18.09 21.474C17.9145 21.474 17.742 21.4278 17.59 21.34L11.89 18.18L6.6 21.41C6.44336 21.4975 6.26908 21.5488 6.09 21.56ZM11.85 16.01C12.0238 16.0103 12.195 16.0514 12.35 16.13L17.06 18.74L16.94 5.79C16.94 5.59 16.81 5.45 16.73 5.46L7.13 5.55C7.05 5.55 6.94 5.68 6.94 5.88L7.06 18.78L11.34 16.15C11.4954 16.061 11.6709 16.0128 11.85 16.01Z" fill="#863ED5"/>
</svg>

