<svg width="32" height="32" viewBox="0 0 32 32" fill="none" xmlns="http://www.w3.org/2000/svg">
<path fill-rule="evenodd" clip-rule="evenodd" d="M8.42667 3.436C13.4587 2.85182 18.5413 2.85182 23.5733 3.436C25.5693 3.668 27 5.38266 27 7.34266V28C26.9998 28.1703 26.9561 28.3377 26.873 28.4864C26.7899 28.635 26.6703 28.76 26.5254 28.8495C26.3805 28.939 26.2152 28.9899 26.0451 28.9976C25.875 29.0053 25.7057 28.9694 25.5533 28.8933L16 24.1187L6.44667 28.896C6.29411 28.9722 6.12461 29.0081 5.95427 29.0003C5.78393 28.9925 5.61842 28.9412 5.47346 28.8514C5.32849 28.7617 5.2089 28.6363 5.12603 28.4873C5.04316 28.3383 4.99978 28.1705 5 28V7.34266C5 5.38266 6.43067 3.668 8.42667 3.436Z" fill="#863ED5"/>
</svg>

