<svg width="24" height="24" viewBox="0 0 24 24" fill="none" xmlns="http://www.w3.org/2000/svg">
<path fill-rule="evenodd" clip-rule="evenodd" d="M9.00004 2.25C9.19896 2.25 9.38972 2.32902 9.53037 2.46967C9.67103 2.61032 9.75004 2.80109 9.75004 3V4.506C11.5364 4.53292 13.3201 4.65677 15.093 4.877C15.1908 4.88921 15.2852 4.92056 15.3709 4.96926C15.4565 5.01796 15.5317 5.08305 15.5922 5.16082C15.6527 5.23859 15.6973 5.32751 15.7235 5.42251C15.7496 5.51751 15.7568 5.61673 15.7445 5.7145C15.7323 5.81227 15.701 5.90668 15.6523 5.99233C15.6036 6.07798 15.5385 6.1532 15.4607 6.2137C15.383 6.2742 15.294 6.31879 15.199 6.34492C15.104 6.37105 15.0048 6.37821 14.907 6.366C14.247 6.283 13.584 6.215 12.917 6.16C12.334 8.43569 11.3267 10.5809 9.94804 12.483C10.265 12.867 10.598 13.236 10.946 13.59C11.0151 13.6603 11.0697 13.7434 11.1066 13.8348C11.1435 13.9261 11.1621 14.0238 11.1613 14.1224C11.1604 14.2209 11.1402 14.3183 11.1017 14.409C11.0633 14.4997 11.0073 14.5819 10.937 14.651C10.8668 14.7201 10.7836 14.7746 10.6923 14.8116C10.6009 14.8485 10.5032 14.8671 10.4047 14.8662C10.3062 14.8654 10.2088 14.8452 10.1181 14.8067C10.0274 14.7682 9.94512 14.7123 9.87605 14.642C9.57322 14.3338 9.28104 14.0153 9.00004 13.687C7.42143 15.5318 5.50081 17.0538 3.34404 18.169C3.25652 18.2142 3.16095 18.2417 3.0628 18.2499C2.96465 18.2582 2.86584 18.247 2.772 18.217C2.67817 18.1871 2.59115 18.1389 2.51592 18.0754C2.44069 18.0118 2.37872 17.934 2.33354 17.8465C2.28837 17.759 2.26088 17.6634 2.25264 17.5653C2.24439 17.4671 2.25557 17.3683 2.28551 17.2745C2.31546 17.1806 2.3636 17.0936 2.42717 17.0184C2.49075 16.9431 2.56852 16.8812 2.65604 16.836C4.72966 15.7634 6.56508 14.2828 8.05204 12.483C7.17961 11.2785 6.45382 9.97429 5.89004 8.598C5.81916 8.41482 5.82297 8.21115 5.90065 8.03074C5.97833 7.85034 6.12367 7.70761 6.30545 7.63322C6.48724 7.55883 6.69095 7.55872 6.87281 7.63291C7.05467 7.70711 7.20017 7.84968 7.27804 8.03C7.73789 9.15237 8.3151 10.223 9.00004 11.224C10.0788 9.64734 10.8869 7.90169 11.391 6.059C8.62137 5.92163 5.845 6.02435 3.09304 6.366C2.89559 6.39067 2.69643 6.33588 2.53936 6.2137C2.3823 6.09152 2.28021 5.91195 2.25554 5.7145C2.23088 5.51705 2.28566 5.31788 2.40784 5.16082C2.53002 5.00376 2.70959 4.90166 2.90704 4.877C4.67998 4.65633 6.46363 4.53248 8.25004 4.506V3C8.25004 2.80109 8.32906 2.61032 8.46972 2.46967C8.61037 2.32902 8.80113 2.25 9.00004 2.25ZM15.75 9C15.8929 8.99995 16.0327 9.04066 16.1532 9.11737C16.2736 9.19407 16.3697 9.30357 16.43 9.433L21.68 20.683C21.7217 20.7723 21.7453 20.8689 21.7496 20.9674C21.7539 21.0658 21.7387 21.1641 21.705 21.2567C21.6713 21.3493 21.6197 21.4343 21.5531 21.5069C21.4866 21.5796 21.4063 21.6384 21.317 21.68C21.1367 21.7641 20.9303 21.7731 20.7434 21.705C20.5564 21.6369 20.4041 21.4973 20.32 21.317L19.122 18.75H12.378L11.18 21.317C11.096 21.4973 10.9437 21.6369 10.7567 21.705C10.5698 21.7731 10.3634 21.7641 10.183 21.68C10.0027 21.5959 9.86313 21.4437 9.79506 21.2567C9.72698 21.0697 9.73597 20.8633 9.82004 20.683L15.07 9.433C15.1304 9.30357 15.2265 9.19407 15.3469 9.11737C15.4674 9.04066 15.6072 8.99995 15.75 9ZM13.078 17.25H18.422L15.75 11.524L13.078 17.25Z" fill="#863ED5"/>
</svg>

