<svg width="24" height="24" viewBox="0 0 24 24" fill="none" xmlns="http://www.w3.org/2000/svg">
<path d="M11.3196 5.3908C9.89803 4.48027 8.24474 3.99751 6.55659 4.00001C5.55228 3.99898 4.55514 4.16926 3.60808 4.50352C3.47544 4.55042 3.36059 4.63728 3.27935 4.75215C3.19812 4.86702 3.15448 5.00425 3.15446 5.14494V18.073C3.15448 18.1819 3.18061 18.2891 3.23066 18.3858C3.2807 18.4825 3.35321 18.5657 3.44209 18.6285C3.53096 18.6914 3.63362 18.732 3.74143 18.7469C3.84925 18.7619 3.95908 18.7507 4.0617 18.7144C4.86309 18.4318 5.70682 18.2879 6.55659 18.289C8.36653 18.289 10.025 18.9304 11.3196 20V5.3908ZM12.6804 20C14.0199 18.8915 15.7048 18.2862 17.4434 18.289C18.3198 18.289 19.1581 18.4396 19.9383 18.7154C20.041 18.7517 20.1509 18.7628 20.2588 18.7478C20.3667 18.7328 20.4694 18.6921 20.5583 18.6292C20.6472 18.5662 20.7197 18.4829 20.7697 18.3861C20.8196 18.2893 20.8457 18.182 20.8455 18.073V5.14494C20.8455 5.00425 20.8019 4.86702 20.7207 4.75215C20.6394 4.63728 20.5246 4.55042 20.3919 4.50352C19.4449 4.16926 18.4477 3.99898 17.4434 4.00001C15.7553 3.99751 14.102 4.48027 12.6804 5.3908V20Z" fill="#863ED5"/>
</svg>
