<svg width="16" height="15" viewBox="0 0 16 15" fill="none" xmlns="http://www.w3.org/2000/svg">
<path d="M8.75 14.41C9.99943 13.548 11.482 13.0875 13 13.09C13.71 13.09 14.396 13.188 15.046 13.372C15.1576 13.4035 15.2749 13.4088 15.3888 13.3873C15.5028 13.3659 15.6102 13.3183 15.7026 13.2483C15.795 13.1784 15.87 13.0879 15.9216 12.9841C15.9732 12.8803 16 12.7659 16 12.65V1.65C15.9998 1.48678 15.9464 1.32807 15.8479 1.19795C15.7494 1.06783 15.6111 0.973401 15.454 0.929005C14.6555 0.703503 13.8297 0.589424 13 0.590005C11.517 0.58795 10.0567 0.953883 8.75 1.655V14.41ZM7.25 1.655C5.94325 0.953883 4.48296 0.58795 3 0.590005C2.15 0.590005 1.327 0.708005 0.546 0.929005C0.388932 0.973401 0.250634 1.06783 0.152096 1.19795C0.0535573 1.32807 0.000157354 1.48678 0 1.65V12.65C0.00011165 12.7659 0.0270574 12.8801 0.0787244 12.9838C0.130391 13.0875 0.205375 13.1778 0.297795 13.2476C0.390215 13.3175 0.497559 13.365 0.61141 13.3864C0.72526 13.4078 0.842522 13.4025 0.954 13.371C1.61979 13.1835 2.30831 13.089 3 13.09C4.579 13.09 6.042 13.577 7.25 14.41V1.655Z" fill="white"/>
</svg>
