<svg width="20" height="19" viewBox="0 0 20 19" fill="none" xmlns="http://www.w3.org/2000/svg">
<path d="M10.9375 18.1375C12.4993 17.06 14.3526 16.4844 16.25 16.4875C17.1375 16.4875 17.995 16.61 18.8075 16.84C18.9469 16.8794 19.0936 16.886 19.236 16.8591C19.3785 16.8323 19.5127 16.7728 19.6283 16.6854C19.7438 16.5979 19.8375 16.4849 19.902 16.3551C19.9665 16.2254 20.0001 16.0824 20 15.9375V2.1875C19.9998 1.98347 19.9331 1.78508 19.8099 1.62243C19.6867 1.45977 19.5138 1.34174 19.3175 1.28625C18.3194 1.00437 17.2871 0.861772 16.25 0.862499C14.3963 0.85993 12.5709 1.31735 10.9375 2.19375V18.1375ZM9.0625 2.19375C7.42906 1.31735 5.6037 0.85993 3.75 0.862499C2.6875 0.862499 1.65875 1.01 0.6825 1.28625C0.486165 1.34174 0.313293 1.45977 0.19012 1.62243C0.0669466 1.78508 0.000196693 1.98347 0 2.1875V15.9375C0.000139563 16.0823 0.0338218 16.2251 0.0984055 16.3547C0.162989 16.4843 0.256719 16.5972 0.372244 16.6845C0.487769 16.7718 0.621949 16.8312 0.764262 16.8579C0.906575 16.8847 1.05315 16.8781 1.1925 16.8387C2.02474 16.6044 2.88539 16.4862 3.75 16.4875C5.72375 16.4875 7.5525 17.0962 9.0625 18.1375V2.19375Z" fill="white"/>
</svg>

