<svg width="22" height="12" viewBox="0 0 22 12" fill="none" xmlns="http://www.w3.org/2000/svg">
<path d="M7.952 9.872H3.504L2.768 12H0.416L4.432 0.815999H7.04L11.056 12H8.688L7.952 9.872ZM7.344 8.08L5.728 3.408L4.112 8.08H7.344ZM18.8931 6.272C19.5225 6.38933 20.0398 6.704 20.4451 7.216C20.8505 7.728 21.0531 8.31467 21.0531 8.976C21.0531 9.57333 20.9038 10.1013 20.6051 10.56C20.3171 11.008 19.8958 11.36 19.3411 11.616C18.7865 11.872 18.1305 12 17.3731 12H12.5571V0.832H17.1651C17.9225 0.832 18.5731 0.954666 19.1171 1.2C19.6718 1.44533 20.0878 1.78667 20.3651 2.224C20.6531 2.66133 20.7971 3.15733 20.7971 3.712C20.7971 4.36267 20.6211 4.90667 20.2691 5.344C19.9278 5.78133 19.4691 6.09067 18.8931 6.272ZM14.7971 5.44H16.8451C17.3785 5.44 17.7891 5.32267 18.0771 5.088C18.3651 4.84267 18.5091 4.496 18.5091 4.048C18.5091 3.6 18.3651 3.25333 18.0771 3.008C17.7891 2.76267 17.3785 2.64 16.8451 2.64H14.7971V5.44ZM17.0531 10.176C17.5971 10.176 18.0185 10.048 18.3171 9.792C18.6265 9.536 18.7811 9.17333 18.7811 8.704C18.7811 8.224 18.6211 7.85067 18.3011 7.584C17.9811 7.30667 17.5491 7.168 17.0051 7.168H14.7971V10.176H17.0531Z" fill="#863ED5"/>
</svg>

