<svg width="24" height="24" viewBox="0 0 24 24" fill="none" xmlns="http://www.w3.org/2000/svg">
<path fill-rule="evenodd" clip-rule="evenodd" d="M6.39999 4.8C6.39999 4.58783 6.48428 4.38434 6.63431 4.23431C6.78434 4.08429 6.98782 4 7.19999 4H8.79999C9.01217 4 9.21565 4.08429 9.36568 4.23431C9.51571 4.38434 9.59999 4.58783 9.59999 4.8V19.2C9.59999 19.4122 9.51571 19.6157 9.36568 19.7657C9.21565 19.9157 9.01217 20 8.79999 20H7.19999C6.98782 20 6.78434 19.9157 6.63431 19.7657C6.48428 19.6157 6.39999 19.4122 6.39999 19.2V4.8ZM14.4 4.8C14.4 4.58783 14.4843 4.38434 14.6343 4.23431C14.7843 4.08429 14.9878 4 15.2 4H16.8C17.0122 4 17.2157 4.08429 17.3657 4.23431C17.5157 4.38434 17.6 4.58783 17.6 4.8V19.2C17.6 19.4122 17.5157 19.6157 17.3657 19.7657C17.2157 19.9157 17.0122 20 16.8 20H15.2C14.9878 20 14.7843 19.9157 14.6343 19.7657C14.4843 19.6157 14.4 19.4122 14.4 19.2V4.8Z" fill="#863ED5" stroke="#863ED5" stroke-width="2"/>
</svg>
