<svg width="24" height="25" viewBox="0 0 24 25" fill="none" xmlns="http://www.w3.org/2000/svg">
<path d="M4.61853 5.70618C4.61853 4.78981 5.60021 4.20958 6.4031 4.65064L18.757 11.4453C18.9461 11.5492 19.1038 11.7019 19.2137 11.8876C19.3235 12.0733 19.3815 12.2851 19.3815 12.5008C19.3815 12.7166 19.3235 12.9284 19.2137 13.114C19.1038 13.2997 18.9461 13.4525 18.757 13.5564L6.4031 20.351C6.21971 20.4518 6.0132 20.5031 5.80394 20.4999C5.59468 20.4966 5.38989 20.4388 5.20975 20.3322C5.02961 20.2257 4.88035 20.0741 4.77668 19.8922C4.67301 19.7104 4.6185 19.5048 4.61853 19.2955V5.70618Z" stroke="#863ED5" stroke-width="2" stroke-linecap="round" stroke-linejoin="round"/>
</svg>
