<svg width="33" height="32" viewBox="0 0 33 32" fill="none" xmlns="http://www.w3.org/2000/svg">
<path d="M15.465 6.044C13.3758 4.70582 10.946 3.99632 8.465 4C6.98898 3.99849 5.52353 4.24875 4.13166 4.74C3.93672 4.80892 3.76793 4.93658 3.64854 5.1054C3.52915 5.27422 3.46503 5.4759 3.465 5.68267V24.6827C3.46502 24.8426 3.50342 25.0003 3.57697 25.1423C3.65052 25.2844 3.75708 25.4067 3.8877 25.4991C4.01832 25.5914 4.16919 25.6511 4.32765 25.673C4.4861 25.695 4.64751 25.6787 4.79833 25.6253C5.97611 25.2099 7.21611 24.9984 8.465 25C11.125 25 13.5623 25.9427 15.465 27.5147V6.044ZM17.465 27.5147C19.4335 25.8855 21.9098 24.996 24.465 25C25.753 25 26.985 25.2213 28.1317 25.6267C28.2826 25.68 28.4441 25.6964 28.6027 25.6743C28.7612 25.6523 28.9122 25.5925 29.0428 25.5C29.1735 25.4075 29.28 25.285 29.3535 25.1428C29.4269 25.0005 29.4652 24.8427 29.465 24.6827V5.68267C29.465 5.4759 29.4008 5.27422 29.2815 5.1054C29.1621 4.93658 28.9933 4.80892 28.7983 4.74C27.4065 4.24875 25.941 3.99849 24.465 4C21.984 3.99632 19.5542 4.70582 17.465 6.044V27.5147Z" fill="#863ED5"/>
</svg>

