<svg width="33" height="32" viewBox="0 0 33 32" fill="none" xmlns="http://www.w3.org/2000/svg">
<path d="M13.722 5.25333C13.842 4.53067 14.4687 4 15.202 4H18.6593C19.3927 4 20.0193 4.53067 20.1393 5.25333L20.4233 6.96133C20.5073 7.46 20.8407 7.876 21.2833 8.12133C21.382 8.17467 21.4793 8.232 21.5767 8.29067C22.0087 8.552 22.5367 8.63333 23.01 8.456L24.6327 7.848C24.9652 7.72294 25.3313 7.71997 25.6658 7.83962C26.0004 7.95926 26.2815 8.19375 26.4593 8.50133L28.1873 11.4973C28.3647 11.8049 28.4273 12.1655 28.3638 12.5149C28.3003 12.8643 28.1149 13.1798 27.8407 13.4053L26.5033 14.508C26.1127 14.828 25.9193 15.3253 25.9287 15.8307C25.9308 15.944 25.9308 16.0573 25.9287 16.1707C25.9193 16.6747 26.1127 17.1707 26.502 17.4907L27.842 18.5947C28.4073 19.0613 28.554 19.8667 28.1887 20.5013L26.458 23.4973C26.2805 23.8049 25.9996 24.0394 25.6654 24.1593C25.3311 24.2792 24.9652 24.2766 24.6327 24.152L23.01 23.544C22.5367 23.3667 22.01 23.448 21.5753 23.7093C21.4787 23.7681 21.3809 23.825 21.282 23.88C20.8407 24.124 20.5073 24.54 20.4233 25.0387L20.1393 26.7453C20.0193 27.4693 19.3927 28 18.6593 28H15.2007C14.4673 28 13.8407 27.4693 13.7207 26.7467L13.4367 25.0387C13.354 24.54 13.0207 24.124 12.578 23.8787C12.4791 23.8241 12.3813 23.7677 12.2847 23.7093C11.8513 23.448 11.3247 23.3667 10.85 23.544L9.22734 24.152C8.89497 24.2767 8.52916 24.2795 8.19493 24.1599C7.86071 24.0402 7.57975 23.8059 7.402 23.4987L5.67267 20.5027C5.49526 20.1951 5.43273 19.8345 5.49621 19.4851C5.55969 19.1357 5.74506 18.8202 6.01934 18.5947L7.358 17.492C7.74734 17.172 7.94067 16.6747 7.93134 16.1693C7.92925 16.056 7.92925 15.9427 7.93134 15.8293C7.94067 15.3253 7.74734 14.8293 7.358 14.5093L6.01934 13.4053C5.74539 13.1799 5.56023 12.8646 5.49677 12.5155C5.4333 12.1664 5.49562 11.8061 5.67267 11.4987L7.402 8.50267C7.57958 8.19485 7.86069 7.96008 8.19522 7.84018C8.52975 7.72029 8.89599 7.72306 9.22867 7.848L10.85 8.456C11.3247 8.63333 11.8513 8.552 12.2847 8.29067C12.3807 8.232 12.4793 8.17467 12.578 8.12C13.0207 7.876 13.354 7.46 13.4367 6.96133L13.722 5.25333Z" stroke="#8789A3" stroke-width="2" stroke-linecap="round" stroke-linejoin="round"/>
<path d="M20.93 16C20.93 17.0609 20.5086 18.0783 19.7584 18.8284C19.0083 19.5786 17.9909 20 16.93 20C15.8691 20 14.8517 19.5786 14.1016 18.8284C13.3514 18.0783 12.93 17.0609 12.93 16C12.93 14.9391 13.3514 13.9217 14.1016 13.1716C14.8517 12.4214 15.8691 12 16.93 12C17.9909 12 19.0083 12.4214 19.7584 13.1716C20.5086 13.9217 20.93 14.9391 20.93 16Z" stroke="#8789A3" stroke-width="2" stroke-linecap="round" stroke-linejoin="round"/>
</svg>

