<svg width="33" height="32" viewBox="0 0 33 32" fill="none" xmlns="http://www.w3.org/2000/svg">
<path fill-rule="evenodd" clip-rule="evenodd" d="M15.7007 3C14.478 3 13.4353 3.884 13.234 5.08933L12.9967 6.51867C12.97 6.67867 12.8433 6.86533 12.6007 6.98267C12.1438 7.20228 11.7043 7.45635 11.286 7.74267C11.0647 7.896 10.8407 7.91067 10.686 7.85333L9.33 7.344C8.77565 7.13632 8.16559 7.13208 7.60842 7.33205C7.05124 7.53202 6.5831 7.92321 6.28733 8.436L5.058 10.5653C4.76212 11.0778 4.65762 11.6786 4.76309 12.2609C4.86856 12.8432 5.17716 13.3692 5.634 13.7453L6.754 14.668C6.88066 14.772 6.98066 14.9733 6.95933 15.2413C6.92133 15.7468 6.92133 16.2545 6.95933 16.76C6.97933 17.0267 6.88066 17.2293 6.75533 17.3333L5.634 18.256C5.17716 18.6321 4.86856 19.1581 4.76309 19.7404C4.65762 20.3227 4.76212 20.9235 5.058 21.436L6.28733 23.5653C6.58331 24.0779 7.05154 24.4688 7.6087 24.6685C8.16586 24.8682 8.7758 24.8638 9.33 24.656L10.6887 24.1467C10.842 24.0893 11.066 24.1053 11.2887 24.256C11.7047 24.5413 12.1433 24.796 12.602 25.016C12.8447 25.1333 12.9713 25.32 12.998 25.4827L13.2353 26.9107C13.4367 28.116 14.4793 29 15.702 29H18.1607C19.382 29 20.426 28.116 20.6273 26.9107L20.8647 25.4813C20.8913 25.3213 21.0167 25.1347 21.2607 25.016C21.7193 24.796 22.158 24.5413 22.574 24.256C22.7967 24.104 23.0207 24.0893 23.174 24.1467L24.534 24.656C25.088 24.863 25.6975 24.8668 26.254 24.6669C26.8106 24.467 27.2783 24.0762 27.574 23.564L28.8047 21.4347C29.1005 20.9222 29.205 20.3214 29.0996 19.7391C28.9941 19.1568 28.6855 18.6308 28.2287 18.2547L27.1087 17.332C26.982 17.228 26.882 17.0267 26.9033 16.7587C26.9412 16.2532 26.9412 15.7455 26.9033 15.24C26.882 14.9733 26.982 14.7707 27.1073 14.6667L28.2273 13.744C29.1713 12.968 29.4153 11.624 28.8047 10.564L27.5753 8.43467C27.2794 7.92212 26.8111 7.5312 26.254 7.33149C25.6968 7.13177 25.0869 7.1362 24.5327 7.344L23.1727 7.85333C23.0207 7.91067 22.7967 7.89467 22.574 7.74267C22.1561 7.45639 21.7171 7.20233 21.2607 6.98267C21.0167 6.86667 20.8913 6.68 20.8647 6.51867L20.626 5.08933C20.5288 4.50542 20.2275 3.97495 19.7758 3.59236C19.3241 3.20976 18.7513 2.99985 18.1593 3H15.702H15.7007ZM16.93 21C18.2561 21 19.5278 20.4732 20.4655 19.5355C21.4032 18.5979 21.93 17.3261 21.93 16C21.93 14.6739 21.4032 13.4021 20.4655 12.4645C19.5278 11.5268 18.2561 11 16.93 11C15.6039 11 14.3321 11.5268 13.3945 12.4645C12.4568 13.4021 11.93 14.6739 11.93 16C11.93 17.3261 12.4568 18.5979 13.3945 19.5355C14.3321 20.4732 15.6039 21 16.93 21Z" fill="#863ED5"/>
</svg>

