<svg width="24" height="25" viewBox="0 0 24 25" fill="none" xmlns="http://www.w3.org/2000/svg">
<path d="M9.77777 11.1667L14.2222 8.5M14.2222 16.5L9.77777 13.8333M10.2222 12.5C10.2222 13.9728 9.02831 15.1667 7.55555 15.1667C6.08279 15.1667 4.88889 13.9728 4.88889 12.5C4.88889 11.0272 6.08279 9.83333 7.55555 9.83333C9.02831 9.83333 10.2222 11.0272 10.2222 12.5ZM19.1111 7.16667C19.1111 8.63943 17.9172 9.83333 16.4444 9.83333C14.9717 9.83333 13.7778 8.63943 13.7778 7.16667C13.7778 5.69391 14.9717 4.5 16.4444 4.5C17.9172 4.5 19.1111 5.69391 19.1111 7.16667ZM19.1111 17.8333C19.1111 19.3061 17.9172 20.5 16.4444 20.5C14.9717 20.5 13.7778 19.3061 13.7778 17.8333C13.7778 16.3606 14.9717 15.1667 16.4444 15.1667C17.9172 15.1667 19.1111 16.3606 19.1111 17.8333Z" stroke="#863ED5" stroke-width="2"/>
</svg>
