<svg width="24" height="24" viewBox="0 0 24 24" fill="none" xmlns="http://www.w3.org/2000/svg">
<path d="M11.7001 2.805C11.7947 2.7637 11.8968 2.74239 12.0001 2.74239C12.1033 2.74239 12.2054 2.7637 12.3001 2.805C15.9981 4.4214 19.5256 6.40289 22.8301 8.72C22.9465 8.80167 23.0373 8.91476 23.092 9.0461C23.1466 9.17743 23.1627 9.32158 23.1385 9.46174C23.1143 9.6019 23.0507 9.73229 22.9552 9.83768C22.8597 9.94308 22.7362 10.0191 22.5991 10.057C19.1684 11.0045 15.8489 12.3159 12.6971 13.969L12.6941 13.971L12.3541 14.151C12.2453 14.2091 12.1239 14.2395 12.0006 14.2395C11.8772 14.2395 11.7558 14.2091 11.6471 14.151C10.2957 13.4288 8.91195 12.7691 7.50006 12.174V11.95C7.50006 11.819 7.56706 11.702 7.67206 11.639C9.18143 10.7243 10.7343 9.88332 12.3251 9.119C12.5043 9.0328 12.642 8.87892 12.7079 8.69119C12.7737 8.50347 12.7623 8.29729 12.6761 8.118C12.5899 7.93871 12.436 7.80101 12.2483 7.73519C12.0605 7.66936 11.8543 7.6808 11.6751 7.767C10.0408 8.55229 8.44564 9.4163 6.89506 10.356C6.67446 10.4898 6.48415 10.6681 6.33626 10.8796C6.18837 11.091 6.08613 11.3309 6.03606 11.584C4.51727 10.9996 2.97075 10.49 1.40206 10.057C1.26496 10.0191 1.14144 9.94308 1.04593 9.83768C0.950422 9.73229 0.88685 9.6019 0.862635 9.46174C0.838419 9.32158 0.854557 9.17743 0.909167 9.0461C0.963777 8.91476 1.05461 8.80167 1.17106 8.72C4.47521 6.40297 8.00235 4.42148 11.7001 2.805Z" fill="#863ED5"/>
<path d="M13.06 15.473C15.5163 14.1607 18.0811 13.0627 20.726 12.191C20.86 13.605 20.946 15.034 20.981 16.476C20.9847 16.6269 20.9427 16.7754 20.8607 16.902C20.7786 17.0287 20.6602 17.1277 20.521 17.186C17.6863 18.37 14.9721 19.824 12.416 21.528C12.2928 21.6101 12.1481 21.6539 12 21.6539C11.852 21.6539 11.7072 21.6101 11.584 21.528C9.02822 19.824 6.31438 18.37 3.48001 17.186C3.34061 17.1278 3.22202 17.0289 3.13976 16.9023C3.05751 16.7756 3.01542 16.627 3.01901 16.476C3.05401 15.034 3.14001 13.606 3.27401 12.19C4.19236 12.4927 5.10144 12.8228 6.00001 13.18V14.45C5.78395 14.5745 5.60232 14.7509 5.47158 14.9632C5.34083 15.1755 5.26508 15.4171 5.25118 15.6661C5.23728 15.9151 5.28567 16.1636 5.39198 16.3892C5.49828 16.6147 5.65914 16.8102 5.86001 16.958C5.77001 17.338 5.63801 17.711 5.46301 18.068C5.91501 18.281 6.36401 18.502 6.80901 18.729C7.05991 18.2184 7.24505 17.6781 7.36001 17.121C7.6129 17.0086 7.82974 16.8283 7.98656 16.6003C8.14338 16.3723 8.23405 16.1053 8.24854 15.8289C8.26303 15.5525 8.20078 15.2775 8.06867 15.0344C7.93656 14.7912 7.73975 14.5893 7.50001 14.451V13.806C8.66813 14.3166 9.81569 14.873 10.94 15.474C11.2662 15.6482 11.6302 15.7393 12 15.7393C12.3698 15.7393 12.7338 15.6482 13.06 15.474V15.473Z" fill="#863ED5"/>
<path d="M4.46195 19.462C4.88195 19.043 5.21495 18.572 5.46195 18.068C5.91495 18.281 6.36395 18.502 6.80895 18.729C6.48174 19.3936 6.04725 19.9997 5.52295 20.523C5.45429 20.5967 5.37149 20.6558 5.27949 20.6968C5.18749 20.7378 5.08818 20.7598 4.98747 20.7616C4.88677 20.7634 4.78674 20.7448 4.69335 20.7071C4.59997 20.6694 4.51513 20.6133 4.44391 20.542C4.37269 20.4708 4.31655 20.386 4.27883 20.2926C4.24111 20.1992 4.22258 20.0992 4.22436 19.9985C4.22614 19.8978 4.24818 19.7985 4.28917 19.7065C4.33016 19.6145 4.38926 19.5317 4.46295 19.463L4.46195 19.462Z" fill="#863ED5"/>
</svg>

