<svg width="24" height="25" viewBox="0 0 24 25" fill="none" xmlns="http://www.w3.org/2000/svg">
<path d="M18.1539 14.3462V12.1923C18.1539 11.4579 17.8621 10.7535 17.3428 10.2342C16.8234 9.71483 16.1191 9.42308 15.3846 9.42308H14.1539C13.909 9.42308 13.6742 9.32582 13.5011 9.15271C13.328 8.9796 13.2308 8.74482 13.2308 8.5V7.26923C13.2308 6.53479 12.939 5.83042 12.4197 5.31109C11.9004 4.79176 11.196 4.5 10.4615 4.5H8.92308M8.92308 14.9615H15.0769M8.92308 17.4231H12M10.7692 4.5H6.76924C6.2597 4.5 5.84616 4.91354 5.84616 5.42308V19.5769C5.84616 20.0865 6.2597 20.5 6.76924 20.5H17.2308C17.7403 20.5 18.1539 20.0865 18.1539 19.5769V11.8846C18.1539 9.92609 17.3758 8.04779 15.9909 6.6629C14.6061 5.27802 12.7278 4.5 10.7692 4.5Z" stroke="#863ED5" stroke-width="2" stroke-linecap="round" stroke-linejoin="round"/>
</svg>
