<svg width="24" height="25" viewBox="0 0 24 25" fill="none" xmlns="http://www.w3.org/2000/svg">
<path d="M8.625 12.5C8.625 12.5995 8.58549 12.6948 8.51517 12.7652C8.44484 12.8355 8.34946 12.875 8.25 12.875C8.15054 12.875 8.05516 12.8355 7.98484 12.7652C7.91451 12.6948 7.875 12.5995 7.875 12.5C7.875 12.4005 7.91451 12.3052 7.98484 12.2348C8.05516 12.1645 8.15054 12.125 8.25 12.125C8.34946 12.125 8.44484 12.1645 8.51517 12.2348C8.58549 12.3052 8.625 12.4005 8.625 12.5ZM8.625 12.5H8.25M12.375 12.5C12.375 12.5995 12.3355 12.6948 12.2652 12.7652C12.1948 12.8355 12.0995 12.875 12 12.875C11.9005 12.875 11.8052 12.8355 11.7348 12.7652C11.6645 12.6948 11.625 12.5995 11.625 12.5C11.625 12.4005 11.6645 12.3052 11.7348 12.2348C11.8052 12.1645 11.9005 12.125 12 12.125C12.0995 12.125 12.1948 12.1645 12.2652 12.2348C12.3355 12.3052 12.375 12.4005 12.375 12.5ZM12.375 12.5H12M16.125 12.5C16.125 12.5995 16.0855 12.6948 16.0152 12.7652C15.9448 12.8355 15.8495 12.875 15.75 12.875C15.6505 12.875 15.5552 12.8355 15.4848 12.7652C15.4145 12.6948 15.375 12.5995 15.375 12.5C15.375 12.4005 15.4145 12.3052 15.4848 12.2348C15.5552 12.1645 15.6505 12.125 15.75 12.125C15.8495 12.125 15.9448 12.1645 16.0152 12.2348C16.0855 12.3052 16.125 12.4005 16.125 12.5ZM16.125 12.5H15.75M21 12.5C21 17.056 16.97 20.75 12 20.75C11.1372 20.7511 10.278 20.6377 9.445 20.413C8.27076 21.2389 6.83833 21.6141 5.41 21.47C5.25119 21.4547 5.09307 21.433 4.936 21.405C5.42887 20.8241 5.76547 20.1272 5.914 19.38C6.004 18.923 5.781 18.479 5.447 18.154C3.93 16.678 3 14.689 3 12.5C3 7.944 7.03 4.25 12 4.25C16.97 4.25 21 7.944 21 12.5Z" stroke="#863ED5" stroke-width="2" stroke-linecap="round" stroke-linejoin="round"/>
</svg>

