<svg width="24" height="24" viewBox="0 0 24 24" fill="none" xmlns="http://www.w3.org/2000/svg">
<path fill-rule="evenodd" clip-rule="evenodd" d="M2.25 4.125C2.25 3.089 3.09 2.25 4.125 2.25H9.375C10.411 2.25 11.25 3.09 11.25 4.125V17.25C11.25 18.4435 10.7759 19.5881 9.93198 20.432C9.08807 21.2759 7.94347 21.75 6.75 21.75C5.55653 21.75 4.41193 21.2759 3.56802 20.432C2.72411 19.5881 2.25 18.4435 2.25 17.25V4.125ZM6.75 18.375C7.04837 18.375 7.33452 18.2565 7.5455 18.0455C7.75647 17.8345 7.875 17.5484 7.875 17.25C7.875 16.9516 7.75647 16.6655 7.5455 16.4545C7.33452 16.2435 7.04837 16.125 6.75 16.125C6.45163 16.125 6.16548 16.2435 5.9545 16.4545C5.74353 16.6655 5.625 16.9516 5.625 17.25C5.625 17.5484 5.74353 17.8345 5.9545 18.0455C6.16548 18.2565 6.45163 18.375 6.75 18.375Z" fill="#863ED5"/>
<path d="M10.719 21.75H19.875C20.911 21.75 21.75 20.91 21.75 19.875V14.625C21.75 13.589 20.91 12.75 19.875 12.75H19.735L10.993 21.493C10.903 21.582 10.813 21.668 10.719 21.75ZM12.738 17.625L19.212 11.151C19.5634 10.7994 19.7608 10.3226 19.7608 9.82551C19.7608 9.32839 19.5634 8.85161 19.212 8.50001L15.5 4.78701C15.1484 4.43558 14.6716 4.23816 14.1745 4.23816C13.6774 4.23816 13.2006 4.43558 12.849 4.78701L12.749 4.88601V17.25C12.749 17.376 12.746 17.501 12.739 17.625H12.738Z" fill="#863ED5"/>
</svg>
